<?xml version="1.0" encoding="UTF-8" standalone="no"?>
<svg width="37px" height="37px" viewBox="0 0 37 37" version="1.1" xmlns="http://www.w3.org/2000/svg" xmlns:xlink="http://www.w3.org/1999/xlink" xmlns:sketch="http://www.bohemiancoding.com/sketch/ns">
    <!-- Generator: Sketch 3.3.2 (12043) - http://www.bohemiancoding.com/sketch -->
    <title>Heart Icon</title>
    <desc>New Tab Chrome Extension Logo</desc>
    <defs></defs>
    <g id="frontpage" stroke="none" stroke-width="1" fill="none" fill-rule="evenodd" sketch:type="MSPage">
        <g id="frontpage-desktop" sketch:type="MSArtboardGroup" transform="translate(-862.000000, -2027.000000)">
            <g id="linkster-wireframe-copy" sketch:type="MSLayerGroup" transform="translate(0.000000, 1208.000000)">
                <g id="Drag-and-drop-+-heart-icon" transform="translate(863.000000, 820.000000)" sketch:type="MSShapeGroup">
                    <g id="heart-icon">
                        <ellipse id="Oval-17-Copy" stroke="#a44cc3" stroke-width="2" fill="#fbf4cd" fill-opacity="1.0" cx="17.6038811" cy="17.6267945" rx="17.372989" ry="17.372989"></ellipse>
                        <path d="M17.6036,26.853398 C17.4456307,26.853398 17.2831639,26.8325505 17.1083295,26.7897582 C17.0448044,26.772751 16.9981444,26.7557438 16.9514844,26.7365422 L16.8986406,26.7173405 C16.8193748,26.6910068 16.7412334,26.66193 16.6670271,26.6235267 C16.5765179,26.5763454 7.40754744,21.7435612 7.40754744,16.1915376 C7.40754744,12.6705013 9.91706825,10.0162829 13.2451066,10.0162829 C14.7134911,10.0162829 16.3910023,10.7426544 17.6036,11.8684204 C18.81676,10.7426544 20.4942712,10.0162829 21.9626557,10.0162829 C25.290694,10.0162829 27.8002148,12.6710499 27.8002148,16.1915376 C27.8002148,21.7435612 18.6312443,26.5763454 18.5390487,26.6246239 C18.4659667,26.6630272 18.3883875,26.6915554 18.3096839,26.7178891 C18.306873,26.7184377 18.266959,26.7321532 18.2647104,26.7332504 C18.2107422,26.7562924 18.1640822,26.7732996 18.1151735,26.7859179 C17.9245983,26.8325505 17.7626938,26.853398 17.6036,26.853398 L17.6036,26.853398 Z" id="like-copy-4" fill="#a44cc3"></path>
                    </g>
                </g>
            </g>
        </g>
    </g>
</svg>